<?xml version="1.0" encoding="UTF-8" standalone="no"?>
<!-- Created with Inkscape (http://www.inkscape.org/) -->

<svg
   xmlns:osb="http://www.openswatchbook.org/uri/2009/osb"
   xmlns:dc="http://purl.org/dc/elements/1.1/"
   xmlns:cc="http://creativecommons.org/ns#"
   xmlns:rdf="http://www.w3.org/1999/02/22-rdf-syntax-ns#"
   xmlns:svg="http://www.w3.org/2000/svg"
   xmlns="http://www.w3.org/2000/svg"
   xmlns:sodipodi="http://sodipodi.sourceforge.net/DTD/sodipodi-0.dtd"
   xmlns:inkscape="http://www.inkscape.org/namespaces/inkscape"
   width="210mm"
   height="297mm"
   viewBox="0 0 744.09448819 1052.3622047"
   id="svg2"
   version="1.1"
   inkscape:version="0.91 r13725"
   sodipodi:docname="Biking.svg">
  <defs
     id="defs4">
    <linearGradient
       id="linearGradient5756"
       osb:paint="solid">
      <stop
         style="stop-color:#000000;stop-opacity:0.98863637;"
         offset="0"
         id="stop5758" />
    </linearGradient>
  </defs>
  <sodipodi:namedview
     id="base"
     pagecolor="#ffffff"
     bordercolor="#666666"
     borderopacity="1.0"
     inkscape:pageopacity="0.0"
     inkscape:pageshadow="2"
     inkscape:zoom="1"
     inkscape:cx="321.88306"
     inkscape:cy="745.35183"
     inkscape:document-units="px"
     inkscape:current-layer="layer3"
     showgrid="true"
     inkscape:window-width="1366"
     inkscape:window-height="705"
     inkscape:window-x="-8"
     inkscape:window-y="-8"
     inkscape:window-maximized="1">
    <inkscape:grid
       type="xygrid"
       id="grid3360" />
  </sodipodi:namedview>
  <metadata
     id="metadata7">
    <rdf:RDF>
      <cc:Work
         rdf:about="">
        <dc:format>image/svg+xml</dc:format>
        <dc:type
           rdf:resource="http://purl.org/dc/dcmitype/StillImage" />
        <dc:title></dc:title>
      </cc:Work>
    </rdf:RDF>
  </metadata>
  <g
     inkscape:groupmode="layer"
     id="layer3"
     inkscape:label="Layer 3"
     style="display:inline">
    <path
       style="opacity:0.70400002;fill:#ffffff;fill-opacity:1;stroke:none;stroke-width:1;stroke-miterlimit:4;stroke-dasharray:none;stroke-opacity:1"
       d="m 540.16211,237.375 c -6.83579,0.004 -13.5092,0.0957 -20.69141,0.0957 -7.2e-4,-0.003 -9.5e-4,-0.005 -0.002,-0.008 l -5.1875,0 8.125,29.32031 -105.98437,0 L 410,252.36133 l 17,0 c 1.662,0 3,-1.115 3,-2.5 0,-1.385 -1.338,-2.5 -3,-2.5 l -29,0 c -1.662,0 -3,1.115 -3,2.5 0,1.385 1.338,2.5 3,2.5 l 6.52539,0 8.55469,19.21094 0,0.39843 0.17773,0 3.51563,7.89649 -17.2168,25.36328 c -8.73024,-5.46262 -18.81879,-8.3644 -29.11719,-8.375 -30.37566,0 -55,24.62434 -55,55 0,30.37566 24.62434,55 55,55 30.11284,-0.0107 54.61834,-24.23499 54.97657,-54.3457 l 10.11132,0 c 0.0844,6.19354 4.04594,11.42113 9.55078,13.42773 l -2.85742,11.29102 -2.35547,0 0,3.14257 8.51954,0 0,-3.14257 -2.56641,0 2.6543,-10.48829 c 0.51415,0.0553 1.03578,0.0877 1.56445,0.0879 8.01664,-2.7e-4 14.51534,-6.49898 14.51562,-14.51562 -0.006,-3.93126 -1.6068,-7.69184 -4.43554,-10.42188 l 64.31836,-67.7871 7.13672,25.75195 c -22.25884,7.58589 -37.23228,28.48403 -37.25782,52 0,30.37566 24.62434,55 55,55 30.37566,0 55,-24.62434 55,-55 0,-30.37566 -24.62434,-55 -55,-55 -4.36171,0.0215 -8.70537,0.56173 -12.93945,1.60937 -5.33772,-19.26157 -10.31196,-37.21142 -15.51758,-55.99414 0,0 22.28711,-0.24131 25.20117,-0.13281 2.9421,0.0241 6.94141,3.02431 7.25196,8.62109 -4.7e-4,5.18471 -4.20397,9.38733 -9.38867,9.38672 -2.92188,0.0165 -2.92194,4.0165 0.0469,4.06836 7.45584,0 13.5,-6.04416 13.5,-13.5 0.53122,-6.55186 -3.46955,-12.55247 -10.39258,-13.50781 -2.3395,-0.0252 -4.63546,-0.0325 -6.91406,-0.0312 z m -121.42969,34.5957 100.83203,0 -63.64453,67.08203 c -0.13091,-0.0584 -0.268,-0.0999 -0.40039,-0.15429 l 2.85352,-11.30469 2.97656,-0.0449 0,-3.57031 -9.07031,0 0,3.57031 2.51562,0 -2.63867,10.42383 c -0.7008,-0.10496 -1.407,-0.17637 -2.11914,-0.17774 -0.64577,0.006 -1.29043,0.0548 -1.92969,0.14649 z m 0.4336,13.27149 24.14257,54.21679 c -3.15693,1.65687 -5.59369,4.41761 -6.8457,7.75586 l -11.25586,0 c -1.32239,-15.50475 -9.15076,-29.72372 -21.54492,-39.13281 z m -48.72657,16.34179 c 9.334,0.0221 18.47486,2.6793 26.38477,7.66993 l -23.33399,34.37304 c -1.10962,-0.44638 -2.29419,-0.67706 -3.49023,-0.67968 -5.19479,3.4e-4 -9.40591,4.21146 -9.40625,9.40625 3.4e-4,5.19479 4.21146,9.40591 9.40625,9.40625 5.13134,-0.004 9.31288,-4.11937 9.39844,-9.25 l 40.92578,0 c -0.35545,27.49528 -22.58055,49.60117 -49.88477,49.61718 -27.56889,-6e-5 -49.91789,-22.50732 -49.91797,-50.27148 7e-5,-27.76416 22.34907,-50.27143 49.91797,-50.27149 z m 178.875,0 c 27.5689,6e-5 49.9179,22.50733 49.91797,50.27149 -8e-5,27.76416 -22.34908,50.27142 -49.91797,50.27148 -27.56889,-6e-5 -49.91789,-22.50732 -49.91797,-50.27148 0.0249,-21.35012 13.43789,-40.35551 33.45118,-47.39844 l 11.25976,40.625 c -2.21283,1.7844 -3.50007,4.47375 -3.50195,7.31641 3.4e-4,5.19479 4.21146,9.40591 9.40625,9.40625 5.19555,7.4e-4 9.40786,-4.2107 9.4082,-9.40625 7.5e-4,-5.19632 -4.21188,-9.40895 -9.4082,-9.40821 -0.42494,0.004 -0.84909,0.0378 -1.26953,0.0996 -3.70873,-13.38783 -7.28726,-26.29037 -11.10157,-40.05468 3.82089,-0.94536 7.73936,-1.43247 11.67383,-1.45117 z m -148.39453,10.53711 c 10.9456,8.51637 17.89176,21.2247 19.18164,35.09375 l -42.22656,0 c -0.12598,-0.19098 -0.25888,-0.3773 -0.39844,-0.55859 z"
       id="path5132"
       inkscape:connector-curvature="0"
       sodipodi:nodetypes="cccccccsssssscccccccscccccccccccccccccsscccccccccscccccccccccccccccccccccccccccscccscccccccccccccccc" />
  </g>
</svg>
