<?xml version="1.0" encoding="UTF-8" standalone="no"?>
<!-- Created with Inkscape (http://www.inkscape.org/) -->

<svg
   xmlns:osb="http://www.openswatchbook.org/uri/2009/osb"
   xmlns:dc="http://purl.org/dc/elements/1.1/"
   xmlns:cc="http://creativecommons.org/ns#"
   xmlns:rdf="http://www.w3.org/1999/02/22-rdf-syntax-ns#"
   xmlns:svg="http://www.w3.org/2000/svg"
   xmlns="http://www.w3.org/2000/svg"
   xmlns:sodipodi="http://sodipodi.sourceforge.net/DTD/sodipodi-0.dtd"
   xmlns:inkscape="http://www.inkscape.org/namespaces/inkscape"
   width="210mm"
   height="297mm"
   viewBox="0 0 744.09448819 1052.3622047"
   id="svg2"
   version="1.1"
   inkscape:version="0.91 r13725"
   sodipodi:docname="Carpentry.svg">
  <defs
     id="defs4">
    <linearGradient
       id="linearGradient5756"
       osb:paint="solid">
      <stop
         style="stop-color:#000000;stop-opacity:0.98863637;"
         offset="0"
         id="stop5758" />
    </linearGradient>
  </defs>
  <sodipodi:namedview
     id="base"
     pagecolor="#ffffff"
     bordercolor="#666666"
     borderopacity="1.0"
     inkscape:pageopacity="0.0"
     inkscape:pageshadow="2"
     inkscape:zoom="0.35355339"
     inkscape:cx="279.99313"
     inkscape:cy="284.31028"
     inkscape:document-units="px"
     inkscape:current-layer="layer3"
     showgrid="true"
     inkscape:window-width="1366"
     inkscape:window-height="705"
     inkscape:window-x="-8"
     inkscape:window-y="-8"
     inkscape:window-maximized="1">
    <inkscape:grid
       type="xygrid"
       id="grid3360" />
  </sodipodi:namedview>
  <metadata
     id="metadata7">
    <rdf:RDF>
      <cc:Work
         rdf:about="">
        <dc:format>image/svg+xml</dc:format>
        <dc:type
           rdf:resource="http://purl.org/dc/dcmitype/StillImage" />
        <dc:title></dc:title>
      </cc:Work>
    </rdf:RDF>
  </metadata>
  <g
     inkscape:groupmode="layer"
     id="layer3"
     inkscape:label="Layer 3">
    <g
       id="g4399">
      <path
         sodipodi:nodetypes="ccccccccccccccccccccccscsccc"
         inkscape:connector-curvature="0"
         id="rect4144"
         d="m 412.81414,355.86089 0,15 -15,0 0,-10 -20,0 0,35.00001 20,0 0,-10.00001 15,0 0,15.00001 10,0 0,10 5.00586,0 0,249.99609 29.98828,0 0,-249.99609 5.00586,0 0,-10 10,0 0,-9.36133 c 13.03786,0.87915 24.95399,7.53046 32.07031,18.05469 1.18237,1.68228 2.97646,3.23183 5.13672,3.29492 3.12953,6.6e-4 5.95212,-2.53577 6.10352,-5.32422 0.15139,-2.78846 0.0519,-4.72411 0.0859,-6.66406 -3.39645,-19.99913 -18.63042,-39.46734 -41.61129,-39.4668 -0.59889,1e-5 -1.19244,0.0192 -1.78516,0.043 l 0,-5.57618 z"
         style="opacity:0.98000004;fill:#ffffff;fill-opacity:1;stroke:none;stroke-width:1.01026356;stroke-miterlimit:4;stroke-dasharray:none;stroke-opacity:1" />
      <path
         sodipodi:nodetypes="ccccccccscssccccccccccccccccccccccccccccccccccccccccccccccccccccscccccccccccccsscscccccccccccccccc"
         inkscape:connector-curvature="0"
         id="path4293"
         d="m 307.81414,380.86089 -20,50.00001 0,30 10,5 0,15 -10,15 -1.86719,-0.79688 c -2.44025,5.31075 -4.61034,10.74151 -6.50195,16.27149 -0.63086,1.52626 -3.00851,0.47797 -4.70898,-0.64844 -2.56743,-1.70068 -3.31787,-2.21104 -5.3125,-2.21289 -4.14216,0 -7.60357,3.17052 -7.31055,6.86719 0.29302,3.69667 1.29297,4.69813 4.57617,7.60937 2.63884,2.33988 5.9357,6.03786 7.14844,7.42969 -2.95389,12.59057 -4.48949,25.47217 -4.57813,38.4043 0.0699,29.45561 7.6448,58.40757 22.00977,84.12304 1.31691,2.42769 2.69165,4.82356 4.12304,7.18555 0.0305,0.0217 0.0611,0.0432 0.0918,0.0645 0.25846,0.16621 0.52507,0.3194 0.79883,0.45899 0.27414,0.13961 0.55509,0.26542 0.8418,0.37695 0.28663,0.11154 0.57866,0.20867 0.875,0.29102 0.29594,0.082 0.59579,0.14911 0.89843,0.20117 0.30329,0.0524 0.60901,0.0895 0.91602,0.11133 0.2171,0.0155 0.43468,0.0233 0.65234,0.0234 0.30723,-2.9e-4 0.61426,-0.0159 0.91993,-0.0469 0.30613,-0.0303 0.61053,-0.076 0.91211,-0.13672 0.30115,-0.0612 0.59904,-0.13752 0.89257,-0.22852 0.2935,-0.091 0.58228,-0.19658 0.86524,-0.3164 0.28319,-0.11955 0.56023,-0.25318 0.83008,-0.40039 0.27026,-0.14756 0.53296,-0.30857 0.78711,-0.48242 0.25396,-0.17383 0.49905,-0.36026 0.73437,-0.5586 0.23491,-0.19764 0.4598,-0.40688 0.67383,-0.62695 0.21391,-0.22085 0.41663,-0.45226 0.60742,-0.69336 0.19144,-0.24088 0.3707,-0.4912 0.53711,-0.75 0.16621,-0.25846 0.31939,-0.52507 0.45898,-0.79883 0.13895,-0.27418 0.26411,-0.55513 0.375,-0.8418 0.11154,-0.28663 0.20867,-0.57866 0.29102,-0.875 0.0826,-0.29591 0.15042,-0.59576 0.20312,-0.89843 0.0524,-0.30329 0.0895,-0.60901 0.11133,-0.91602 0.0149,-0.21712 0.022,-0.43471 0.0215,-0.65234 -0.003,-0.19295 -0.0122,-0.38575 -0.0274,-0.57813 -1.05738,-2.06325 -2.06613,-4.15106 -3.02539,-6.26172 -8.6541,-19.09029 -13.15319,-39.8015 -13.19922,-60.76171 0.0648,-25.95081 8.32909,-50.49061 21.35157,-72.9375 l -1.91016,-1.2461 4.9375,-19.75195 5,0 4.96094,19.84375 -1.95508,1.13672 c 13.02248,22.4469 21.63055,46.9242 21.69531,72.875 -0.046,20.96021 -4.54512,41.67143 -13.19922,60.76172 -0.95926,2.11065 -1.96801,4.19847 -3.02539,6.26171 -0.0152,0.19238 -0.0243,0.38518 -0.0273,0.57813 -5.4e-4,0.21763 0.007,0.43521 0.0215,0.65234 0.0218,0.30701 0.059,0.61273 0.11133,0.91602 0.0527,0.30268 0.1205,0.60253 0.20313,0.89844 0.0824,0.29634 0.17948,0.58837 0.29101,0.875 0.11089,0.28667 0.23605,0.56762 0.375,0.84179 0.13959,0.27376 0.29278,0.54037 0.45899,0.79883 0.16641,0.2588 0.34567,0.50912 0.53711,0.75 0.19079,0.2411 0.39351,0.47251 0.60742,0.69336 0.21403,0.22007 0.43892,0.42931 0.67383,0.62695 0.23532,0.19834 0.48041,0.38477 0.73437,0.5586 0.25415,0.17385 0.51685,0.33486 0.78711,0.48242 0.26985,0.14721 0.54689,0.28084 0.83008,0.40039 0.28296,0.11982 0.57173,0.22542 0.86523,0.31641 0.29353,0.091 0.59143,0.16726 0.89258,0.22851 0.30157,0.0608 0.60598,0.10639 0.91211,0.13672 0.30567,0.0309 0.61269,0.0466 0.91992,0.0469 0.21766,-1.1e-4 0.43524,-0.008 0.65235,-0.0234 0.307,-0.0218 0.61272,-0.059 0.91601,-0.11133 0.30264,-0.0521 0.6025,-0.1192 0.89844,-0.20117 0.29634,-0.0824 0.58837,-0.17948 0.875,-0.29102 0.28671,-0.11153 0.56766,-0.23734 0.8418,-0.37695 0.27375,-0.13959 0.54036,-0.29278 0.79882,-0.45899 0.0307,-0.0213 0.0613,-0.0428 0.0918,-0.0645 1.4314,-2.36199 2.80614,-4.75785 4.12305,-7.18555 14.36497,-25.71546 21.93989,-54.66743 22.00976,-84.12304 -0.0822,-12.70564 -1.56113,-25.36373 -4.41015,-37.7461 1.24616,-1.42825 4.51452,-5.08761 7.125,-7.40234 3.2832,-2.91124 4.28315,-3.91075 4.57617,-7.60742 0.29302,-3.69667 -3.16841,-6.86914 -7.31055,-6.86914 -1.99464,0.002 -2.74507,0.51221 -5.3125,2.21289 -1.63861,1.08542 -4.54492,1.56923 -4.58203,0.70312 -1.95652,-5.78594 -4.21749,-11.46443 -6.77344,-17.01171 l -2.18947,0.87695 -10,-15 0,-15 10,-5 0,-30 -25,-50.00001 -7.95898,0.0312 0.0129,40.24438 c 5.04475,0.16082 7.69567,7.0153 7.69995,15.17946 0,8.28489 -4.15115,15.00088 -9.27149,15 -5.12034,8.7e-4 -9.27148,-6.71512 -9.27148,-15 0.006,-7.55894 2.13936,-14.06221 6.77512,-14.99782 l 0.004,-40.45727 z"
         style="opacity:0.98000004;fill:#ffffff;fill-opacity:1;stroke:none;stroke-width:2.31119132;stroke-miterlimit:4;stroke-dasharray:none;stroke-opacity:1" />
    </g>
  </g>
</svg>
