<?xml version="1.0" encoding="UTF-8" standalone="no"?>
<!-- Created with Inkscape (http://www.inkscape.org/) -->

<svg
   xmlns:osb="http://www.openswatchbook.org/uri/2009/osb"
   xmlns:dc="http://purl.org/dc/elements/1.1/"
   xmlns:cc="http://creativecommons.org/ns#"
   xmlns:rdf="http://www.w3.org/1999/02/22-rdf-syntax-ns#"
   xmlns:svg="http://www.w3.org/2000/svg"
   xmlns="http://www.w3.org/2000/svg"
   xmlns:sodipodi="http://sodipodi.sourceforge.net/DTD/sodipodi-0.dtd"
   xmlns:inkscape="http://www.inkscape.org/namespaces/inkscape"
   width="210mm"
   height="297mm"
   viewBox="0 0 744.09448819 1052.3622047"
   id="svg2"
   version="1.1"
   inkscape:version="0.91 r13725"
   sodipodi:docname="Coffee.svg">
  <defs
     id="defs4">
    <linearGradient
       id="linearGradient5756"
       osb:paint="solid">
      <stop
         style="stop-color:#000000;stop-opacity:0.98863637;"
         offset="0"
         id="stop5758" />
    </linearGradient>
  </defs>
  <sodipodi:namedview
     id="base"
     pagecolor="#ffffff"
     bordercolor="#666666"
     borderopacity="1.0"
     inkscape:pageopacity="0.0"
     inkscape:pageshadow="2"
     inkscape:zoom="0.5"
     inkscape:cx="384.77977"
     inkscape:cy="414.56548"
     inkscape:document-units="px"
     inkscape:current-layer="layer3"
     showgrid="true"
     inkscape:window-width="1366"
     inkscape:window-height="705"
     inkscape:window-x="-8"
     inkscape:window-y="-8"
     inkscape:window-maximized="1">
    <inkscape:grid
       type="xygrid"
       id="grid3360" />
  </sodipodi:namedview>
  <metadata
     id="metadata7">
    <rdf:RDF>
      <cc:Work
         rdf:about="">
        <dc:format>image/svg+xml</dc:format>
        <dc:type
           rdf:resource="http://purl.org/dc/dcmitype/StillImage" />
        <dc:title></dc:title>
      </cc:Work>
    </rdf:RDF>
  </metadata>
  <g
     inkscape:groupmode="layer"
     id="layer3"
     inkscape:label="Layer 3"
     style="display:inline">
    <g
       id="g5544"
       style="fill:#ffffff;fill-opacity:1;stroke:none"
       transform="translate(-3312,79.999999)">
      <path
         id="path5473"
         d="m 3652,520.36133 3,32 5,5 100,0 5,-5 3,-32 -116,0 z"
         style="fill:#ffffff;fill-opacity:1;fill-rule:evenodd;stroke:none;stroke-width:1px;stroke-linecap:butt;stroke-linejoin:miter;stroke-opacity:1"
         inkscape:connector-curvature="0" />
      <path
         id="path5478"
         d="m 3643,407.36133 9,111 116,0 9,-111 -134,0 z m 66.9648,10.64062 a 34.350586,34.350586 0 0 1 34.3516,34.34961 34.350586,34.350586 0 0 1 -34.3516,34.35156 34.350586,34.350586 0 0 1 -34.3496,-34.35156 34.350586,34.350586 0 0 1 34.3496,-34.34961 z"
         style="fill:#ffffff;fill-opacity:1;fill-rule:evenodd;stroke:none;stroke-width:1px;stroke-linecap:butt;stroke-linejoin:miter;stroke-opacity:1"
         inkscape:connector-curvature="0" />
      <path
         id="path5480"
         d="m 3635,367.36133 0,10 5,5 1,0 2,22 134,0 2,-22 6,-5 0,-10 -150,0 z"
         style="fill:#ffffff;fill-opacity:1;fill-rule:evenodd;stroke:none;stroke-width:1px;stroke-linecap:butt;stroke-linejoin:miter;stroke-opacity:1"
         inkscape:connector-curvature="0" />
      <path
         id="path5493"
         d="m 3655,312.36133 -5,5 -5,25 -10,5 -5,5 0,12 160,0 0,-12 -5,-5 -10,-5 -5,-25 -5,-5 -110,0 z"
         style="fill:#ffffff;fill-opacity:1;fill-rule:evenodd;stroke:none;stroke-width:1px;stroke-linecap:butt;stroke-linejoin:miter;stroke-opacity:1"
         inkscape:connector-curvature="0" />
      <path
         sodipodi:nodetypes="csccccccccc"
         inkscape:connector-curvature="0"
         id="path5507"
         d="m 3710,420.11133 c -17.9493,0 -32.5,14.55075 -32.5,32.5 0,17.94925 14.5507,32.5 32.5,32.5 6.4497,-0.004 12.7523,-1.92785 18.1055,-5.52539 l -3.4375,-3.4375 c -4.3018,2.3507 -9.1747,3.59349 -14.1368,3.60547 -15.744,6.4e-4 -28.5075,-12.12887 -28.5078,-27.0918 3e-4,-14.96293 12.7638,-27.09244 28.5078,-27.0918 3.5139,0.01 6.9956,0.6368 10.2696,1.84961 l 3.8262,-3.82617 c -4.5364,-2.2882 -9.5462,-3.48092 -14.627,-3.48242 z"
         style="opacity:0.70400002;fill:#ffffff;fill-opacity:1;stroke:none;stroke-width:1;stroke-miterlimit:4;stroke-dasharray:none;stroke-opacity:1" />
    </g>
  </g>
</svg>
