<?xml version="1.0" encoding="UTF-8" standalone="no"?>
<!-- Created with Inkscape (http://www.inkscape.org/) -->

<svg
   xmlns:osb="http://www.openswatchbook.org/uri/2009/osb"
   xmlns:dc="http://purl.org/dc/elements/1.1/"
   xmlns:cc="http://creativecommons.org/ns#"
   xmlns:rdf="http://www.w3.org/1999/02/22-rdf-syntax-ns#"
   xmlns:svg="http://www.w3.org/2000/svg"
   xmlns="http://www.w3.org/2000/svg"
   xmlns:sodipodi="http://sodipodi.sourceforge.net/DTD/sodipodi-0.dtd"
   xmlns:inkscape="http://www.inkscape.org/namespaces/inkscape"
   width="210mm"
   height="297mm"
   viewBox="0 0 744.09448819 1052.3622047"
   id="svg2"
   version="1.1"
   inkscape:version="0.91 r13725"
   sodipodi:docname="Gaming.svg">
  <defs
     id="defs4">
    <linearGradient
       id="linearGradient5756"
       osb:paint="solid">
      <stop
         style="stop-color:#000000;stop-opacity:0.98863637;"
         offset="0"
         id="stop5758" />
    </linearGradient>
  </defs>
  <sodipodi:namedview
     id="base"
     pagecolor="#ffffff"
     bordercolor="#666666"
     borderopacity="1.0"
     inkscape:pageopacity="0.0"
     inkscape:pageshadow="2"
     inkscape:zoom="4"
     inkscape:cx="-1609.2757"
     inkscape:cy="2221.6439"
     inkscape:document-units="px"
     inkscape:current-layer="layer3"
     showgrid="true"
     inkscape:window-width="1366"
     inkscape:window-height="705"
     inkscape:window-x="-8"
     inkscape:window-y="-8"
     inkscape:window-maximized="1">
    <inkscape:grid
       type="xygrid"
       id="grid3360" />
  </sodipodi:namedview>
  <metadata
     id="metadata7">
    <rdf:RDF>
      <cc:Work
         rdf:about="">
        <dc:format>image/svg+xml</dc:format>
        <dc:type
           rdf:resource="http://purl.org/dc/dcmitype/StillImage" />
        <dc:title></dc:title>
      </cc:Work>
    </rdf:RDF>
  </metadata>
  <g
     inkscape:groupmode="layer"
     id="layer3"
     inkscape:label="Layer 3"
     style="display:inline">
    <path
       style="opacity:1;fill:#ffffff;fill-opacity:1;stroke:none;stroke-width:1.07633591;stroke-miterlimit:4;stroke-dasharray:none;stroke-opacity:1"
       d="M -1694 -1230.5996 A 69.96183 69.96183 0 0 0 -1763.9609 -1160.6387 A 69.96183 69.96183 0 0 0 -1694 -1090.6758 A 69.96183 69.96183 0 0 0 -1629.8125 -1132.873 L -1584.8496 -1132.873 A 69.96183 69.96183 0 0 0 -1520.5 -1090.1758 A 69.96183 69.96183 0 0 0 -1450.5391 -1160.1387 A 69.96183 69.96183 0 0 0 -1520.5 -1230.0996 A 69.96183 69.96183 0 0 0 -1528.75 -1229.5234 L -1682.209 -1229.5234 A 69.96183 69.96183 0 0 0 -1694 -1230.5996 z M -1705.0195 -1202.9062 L -1685.4805 -1202.9062 L -1685.4805 -1172.3125 L -1655.0742 -1172.3125 L -1655.0742 -1152.4629 L -1685.4805 -1152.4629 L -1685.4805 -1122.3691 L -1705.0195 -1122.3691 L -1705.0195 -1152.4629 L -1734.9258 -1152.4629 L -1734.9258 -1172.3125 L -1705.0195 -1172.3125 L -1705.0195 -1202.9062 z M -1522.5 -1202.6387 A 12.5 12.5 0 0 1 -1510 -1190.1387 A 12.5 12.5 0 0 1 -1522.5 -1177.6387 A 12.5 12.5 0 0 1 -1535 -1190.1387 A 12.5 12.5 0 0 1 -1522.5 -1202.6387 z M -1620 -1187.6387 L -1595 -1187.6387 L -1595 -1177.6387 L -1620 -1177.6387 L -1620 -1187.6387 z M -1552 -1172.3887 A 12.5 12.5 0 0 1 -1539.5 -1159.8887 A 12.5 12.5 0 0 1 -1552 -1147.3887 A 12.5 12.5 0 0 1 -1564.5 -1159.8887 A 12.5 12.5 0 0 1 -1552 -1172.3887 z M -1492.25 -1172.3887 A 12.5 12.5 0 0 1 -1479.75 -1159.8887 A 12.5 12.5 0 0 1 -1492.25 -1147.3887 A 12.5 12.5 0 0 1 -1504.75 -1159.8887 A 12.5 12.5 0 0 1 -1492.25 -1172.3887 z M -1620 -1162.6387 L -1595 -1162.6387 L -1595 -1152.6387 L -1620 -1152.6387 L -1620 -1162.6387 z M -1522.5 -1143.1387 A 12.5 12.5 0 0 1 -1510 -1130.6387 A 12.5 12.5 0 0 1 -1522.5 -1118.1387 A 12.5 12.5 0 0 1 -1535 -1130.6387 A 12.5 12.5 0 0 1 -1522.5 -1143.1387 z "
       id="path5632" />
  </g>
</svg>
