<?xml version="1.0" encoding="UTF-8" standalone="no"?>
<!-- Created with Inkscape (http://www.inkscape.org/) -->

<svg
   xmlns:osb="http://www.openswatchbook.org/uri/2009/osb"
   xmlns:dc="http://purl.org/dc/elements/1.1/"
   xmlns:cc="http://creativecommons.org/ns#"
   xmlns:rdf="http://www.w3.org/1999/02/22-rdf-syntax-ns#"
   xmlns:svg="http://www.w3.org/2000/svg"
   xmlns="http://www.w3.org/2000/svg"
   xmlns:sodipodi="http://sodipodi.sourceforge.net/DTD/sodipodi-0.dtd"
   xmlns:inkscape="http://www.inkscape.org/namespaces/inkscape"
   width="210mm"
   height="297mm"
   viewBox="0 0 744.09448819 1052.3622047"
   id="svg2"
   version="1.1"
   inkscape:version="0.91 r13725"
   sodipodi:docname="Music.svg">
  <defs
     id="defs4">
    <linearGradient
       id="linearGradient5756"
       osb:paint="solid">
      <stop
         style="stop-color:#000000;stop-opacity:0.98863637;"
         offset="0"
         id="stop5758" />
    </linearGradient>
  </defs>
  <sodipodi:namedview
     id="base"
     pagecolor="#ffffff"
     bordercolor="#666666"
     borderopacity="1.0"
     inkscape:pageopacity="0.0"
     inkscape:pageshadow="2"
     inkscape:zoom="1.4142136"
     inkscape:cx="3217.6807"
     inkscape:cy="663.78482"
     inkscape:document-units="px"
     inkscape:current-layer="layer3"
     showgrid="true"
     inkscape:window-width="1366"
     inkscape:window-height="705"
     inkscape:window-x="-8"
     inkscape:window-y="-8"
     inkscape:window-maximized="1"
     inkscape:snap-path-clip="false"
     gridtolerance="10000"
     objecttolerance="20">
    <inkscape:grid
       type="xygrid"
       id="grid3360"
       dotted="false"
       snapvisiblegridlinesonly="true" />
  </sodipodi:namedview>
  <metadata
     id="metadata7">
    <rdf:RDF>
      <cc:Work
         rdf:about="">
        <dc:format>image/svg+xml</dc:format>
        <dc:type
           rdf:resource="http://purl.org/dc/dcmitype/StillImage" />
        <dc:title></dc:title>
      </cc:Work>
    </rdf:RDF>
  </metadata>
  <g
     inkscape:groupmode="layer"
     id="layer3"
     inkscape:label="Layer 3"
     style="display:inline">
    <path
       style="opacity:0.98000004;fill:#ffffff;fill-opacity:1;stroke:none;stroke-width:1;stroke-miterlimit:4;stroke-dasharray:none;stroke-opacity:1"
       d="M 3220.75 208.72852 A 142.88403 142.88403 0 0 0 3077.8652 351.61133 A 142.88403 142.88403 0 0 0 3078.3223 360.73633 A 81.71788 77.303108 0 0 0 3049.8711 419.20312 A 81.71788 77.303108 0 0 0 3099.1367 490.05078 A 81.71788 77.303108 0 0 0 3099.4023 490.16211 L 3109.1367 489.18945 L 3109.1367 349.18945 L 3099.5039 348.22656 A 119.78443 119.78443 0 0 1 3219.1777 230.51953 A 119.78443 119.78443 0 0 1 3338.8574 347.51758 L 3329.3555 348.46875 L 3329.3555 488.46875 L 3339.0898 489.44141 A 81.71788 77.303108 0 0 0 3339.3555 489.33008 A 81.71788 77.303108 0 0 0 3388.6191 418.48242 A 81.71788 77.303108 0 0 0 3363.1406 362.48047 A 142.88403 142.88403 0 0 0 3363.6348 351.61133 A 142.88403 142.88403 0 0 0 3220.75 208.72852 z "
       id="path4988" />
  </g>
</svg>
