<?xml version="1.0" encoding="UTF-8" standalone="no"?>
<!-- Created with Inkscape (http://www.inkscape.org/) -->

<svg
   xmlns:osb="http://www.openswatchbook.org/uri/2009/osb"
   xmlns:dc="http://purl.org/dc/elements/1.1/"
   xmlns:cc="http://creativecommons.org/ns#"
   xmlns:rdf="http://www.w3.org/1999/02/22-rdf-syntax-ns#"
   xmlns:svg="http://www.w3.org/2000/svg"
   xmlns="http://www.w3.org/2000/svg"
   xmlns:sodipodi="http://sodipodi.sourceforge.net/DTD/sodipodi-0.dtd"
   xmlns:inkscape="http://www.inkscape.org/namespaces/inkscape"
   width="210mm"
   height="297mm"
   viewBox="0 0 744.09448819 1052.3622047"
   id="svg2"
   version="1.1"
   inkscape:version="0.91 r13725"
   sodipodi:docname="Painting.svg">
  <defs
     id="defs4">
    <linearGradient
       id="linearGradient5756"
       osb:paint="solid">
      <stop
         style="stop-color:#000000;stop-opacity:0.98863637;"
         offset="0"
         id="stop5758" />
    </linearGradient>
  </defs>
  <sodipodi:namedview
     id="base"
     pagecolor="#ffffff"
     bordercolor="#666666"
     borderopacity="1.0"
     inkscape:pageopacity="0.0"
     inkscape:pageshadow="2"
     inkscape:zoom="1.4142136"
     inkscape:cx="3189.193"
     inkscape:cy="684.04655"
     inkscape:document-units="px"
     inkscape:current-layer="layer3"
     showgrid="true"
     inkscape:window-width="1366"
     inkscape:window-height="705"
     inkscape:window-x="-8"
     inkscape:window-y="-8"
     inkscape:window-maximized="1"
     inkscape:snap-path-clip="false"
     gridtolerance="10000"
     objecttolerance="20">
    <inkscape:grid
       type="xygrid"
       id="grid3360"
       dotted="false"
       snapvisiblegridlinesonly="true" />
  </sodipodi:namedview>
  <metadata
     id="metadata7">
    <rdf:RDF>
      <cc:Work
         rdf:about="">
        <dc:format>image/svg+xml</dc:format>
        <dc:type
           rdf:resource="http://purl.org/dc/dcmitype/StillImage" />
        <dc:title></dc:title>
      </cc:Work>
    </rdf:RDF>
  </metadata>
  <g
     inkscape:groupmode="layer"
     id="layer3"
     inkscape:label="Layer 3">
    <path
       style="fill:#ffffff;fill-rule:evenodd;stroke:none;stroke-width:1px;stroke-linecap:butt;stroke-linejoin:miter;stroke-opacity:1;fill-opacity:1"
       d="M 3189.748 223.11914 C 3114.748 223.11914 3083.2832 282.05858 3073.2832 307.05859 C 3063.2832 332.05859 3064.0533 396.45512 3083.6621 425.41797 C 3103.2709 454.38082 3120.001 472.42609 3160 472.39453 C 3199.9991 472.36296 3200.0009 457.363 3199.8223 432.00586 C 3199.6438 406.64871 3198.0002 397.36196 3205.8086 384.73633 C 3213.617 372.11069 3230 372.36133 3250 372.36133 C 3270 372.36133 3304.4951 359.3825 3304.4512 314.41406 C 3304.4072 269.44562 3264.748 223.11915 3189.748 223.11914 z M 3194.957 250.0918 A 22.272842 22.272842 0 0 1 3217.2305 272.36523 A 22.272842 22.272842 0 0 1 3194.957 294.63867 A 22.272842 22.272842 0 0 1 3172.6836 272.36523 A 22.272842 22.272842 0 0 1 3194.957 250.0918 z M 3131.5234 277.46484 A 22.272842 22.272842 0 0 1 3153.7949 299.73828 A 22.272842 22.272842 0 0 1 3131.5234 322.01172 A 22.272842 22.272842 0 0 1 3109.25 299.73828 A 22.272842 22.272842 0 0 1 3131.5234 277.46484 z M 3259.957 285.0918 A 22.272842 22.272842 0 0 1 3282.2305 307.36523 A 22.272842 22.272842 0 0 1 3259.957 329.63867 A 22.272842 22.272842 0 0 1 3237.6836 307.36523 A 22.272842 22.272842 0 0 1 3259.957 285.0918 z M 3114.957 345.0918 A 22.272842 22.272842 0 0 1 3137.2305 367.36523 A 22.272842 22.272842 0 0 1 3114.957 389.63867 A 22.272842 22.272842 0 0 1 3092.6836 367.36523 A 22.272842 22.272842 0 0 1 3114.957 345.0918 z M 3147.6348 406.52148 A 22.272842 22.272842 0 0 1 3169.9082 428.79297 A 22.272842 22.272842 0 0 1 3147.6348 451.06641 A 22.272842 22.272842 0 0 1 3125.3633 428.79297 A 22.272842 22.272842 0 0 1 3147.6348 406.52148 z "
       id="path5854" />
    <path
       style="fill:#ffffff;fill-rule:evenodd;stroke:none;stroke-width:1px;stroke-linecap:butt;stroke-linejoin:miter;stroke-opacity:1;fill-opacity:1"
       d="M 3304.9983,392.3656 C 3280,402.3622 3180.1562,552.39345 3184.9887,557.40321 3190.1562,562.39345 3320,432.3622 3324.9986,412.37157 3316.9863,407.37704 3311,401.3622 3304.9983,392.3656 Z"
       id="path5856"
       inkscape:connector-curvature="0"
       sodipodi:nodetypes="cccc" />
    <path
       style="fill:#ffffff;fill-rule:evenodd;stroke:none;stroke-width:1px;stroke-linecap:butt;stroke-linejoin:miter;stroke-opacity:1;fill-opacity:1"
       d="M 3326.0274,410.3634 C 3316,403.3622 3313,400.3622 3306.2992,391.00999 3310,382.3622 3310,382.3622 3343.4809,350.8499 3349,359.3622 3351,361.3622 3359.9999,367.36286 3335,405.3622 3335,405.3622 3326.0274,410.3634 Z"
       id="path5858"
       inkscape:connector-curvature="0"
       sodipodi:nodetypes="ccccc" />
    <path
       style="fill:#ffffff;fill-rule:evenodd;stroke:none;stroke-width:1px;stroke-linecap:butt;stroke-linejoin:miter;stroke-opacity:1;fill-opacity:1"
       d="m 3345.5,348.59436 c 1.5,4.76784 10.5,15.3259 16.5,16.54687 6,1.22097 16.0971,-4.69649 20.0349,-10.68815 3.9378,-5.99165 13.9651,-24.09088 12.9651,-52.31185 -25,20.22097 -30.1811,17.81951 -39.5199,25.95711 -9.3389,8.1376 -11.4801,15.72818 -9.9801,20.49602 z"
       id="path4185"
       inkscape:connector-curvature="0"
       sodipodi:nodetypes="zzzczz" />
  </g>
</svg>
