<?xml version="1.0" encoding="UTF-8" standalone="no"?>
<!-- Created with Inkscape (http://www.inkscape.org/) -->

<svg
   xmlns:osb="http://www.openswatchbook.org/uri/2009/osb"
   xmlns:dc="http://purl.org/dc/elements/1.1/"
   xmlns:cc="http://creativecommons.org/ns#"
   xmlns:rdf="http://www.w3.org/1999/02/22-rdf-syntax-ns#"
   xmlns:svg="http://www.w3.org/2000/svg"
   xmlns="http://www.w3.org/2000/svg"
   xmlns:sodipodi="http://sodipodi.sourceforge.net/DTD/sodipodi-0.dtd"
   xmlns:inkscape="http://www.inkscape.org/namespaces/inkscape"
   width="210mm"
   height="297mm"
   viewBox="0 0 744.09448819 1052.3622047"
   id="svg2"
   version="1.1"
   inkscape:version="0.91 r13725"
   sodipodi:docname="Puzzle.svg">
  <defs
     id="defs4">
    <linearGradient
       id="linearGradient5756"
       osb:paint="solid">
      <stop
         style="stop-color:#000000;stop-opacity:0.98863637;"
         offset="0"
         id="stop5758" />
    </linearGradient>
  </defs>
  <sodipodi:namedview
     id="base"
     pagecolor="#ffffff"
     bordercolor="#666666"
     borderopacity="1.0"
     inkscape:pageopacity="0.0"
     inkscape:pageshadow="2"
     inkscape:zoom="0.24748738"
     inkscape:cx="-983.4789"
     inkscape:cy="2.618085"
     inkscape:document-units="px"
     inkscape:current-layer="layer3"
     showgrid="true"
     inkscape:window-width="1366"
     inkscape:window-height="705"
     inkscape:window-x="-8"
     inkscape:window-y="-8"
     inkscape:window-maximized="1">
    <inkscape:grid
       type="xygrid"
       id="grid3360" />
  </sodipodi:namedview>
  <metadata
     id="metadata7">
    <rdf:RDF>
      <cc:Work
         rdf:about="">
        <dc:format>image/svg+xml</dc:format>
        <dc:type
           rdf:resource="http://purl.org/dc/dcmitype/StillImage" />
        <dc:title></dc:title>
      </cc:Work>
    </rdf:RDF>
  </metadata>
  <g
     inkscape:groupmode="layer"
     id="layer3"
     inkscape:label="Layer 3">
    <path
       style="fill:#ffffff;fill-opacity:1;stroke:none;stroke-width:0.97136623;stroke-opacity:1"
       d="m 433.28108,525.87571 a 24.296298,24.272022 0 0 0 -24.29751,24.2724 24.296298,24.272022 0 0 0 2.12111,9.8425 l -42.50798,0 0,27.3969 a 24.296298,24.272022 0 0 0 -10.10547,-2.2271 24.296298,24.272022 0 0 0 -24.29556,24.2723 24.296298,24.272022 0 0 0 24.29556,24.2725 24.296298,24.272022 0 0 0 10.10547,-2.231 l 0,27.3274 37.56714,0 a 24.296298,24.272022 0 0 1 -2.09777,-9.7942 24.296298,24.272022 0 0 1 24.29557,-24.2724 24.296298,24.272022 0 0 1 24.29555,24.2724 24.296298,24.272022 0 0 1 -2.0822,9.7942 l 37.58272,0 0,-30.1605 a 24.296298,24.272022 0 0 0 14.80307,5.0641 24.296298,24.272022 0 0 0 24.2975,-24.2725 24.296298,24.272022 0 0 0 -24.2975,-24.2723 24.296298,24.272022 0 0 0 -14.80307,5.0448 l 0,-30.2146 -32.68858,0 a 24.296298,24.272022 0 0 0 2.1075,-9.8425 24.296298,24.272022 0 0 0 -24.29555,-24.2724 z"
       id="path4256-14"
       inkscape:connector-curvature="0" />
    <path
       style="fill:#ffffff;fill-opacity:1;stroke:none;stroke-width:0.97317678;stroke-opacity:1"
       d="m 307.05522,419.39539 a 24.189237,24.470417 0 0 0 -24.18945,24.46875 24.189237,24.470417 0 0 0 2.05859,9.79887 l -37.19531,0 0,32.7519 a 24.189237,24.470417 0 0 0 -10.11133,-2.2676 24.189237,24.470417 0 0 0 -24.1875,24.4688 24.189237,24.470417 0 0 0 24.1875,24.4707 24.189237,24.470417 0 0 0 10.11133,-2.2715 l 0,27.4473 34.70508,0 a 26.314779,26.136208 0 0 1 -1.41602,-8.3574 26.314779,26.136208 0 0 1 26.31446,-26.1348 26.314779,26.136208 0 0 1 26.31445,26.1348 26.314779,26.136208 0 0 1 -1.40625,8.3574 l 34.52344,0 0,-30.6856 a 24.189237,24.470417 0 0 1 -5.10157,0.5801 24.189237,24.470417 0 0 1 -24.18945,-24.4707 24.189237,24.470417 0 0 1 24.18945,-24.4707 24.189237,24.470417 0 0 1 5.10157,0.5645 l 0,-26.1172 -37.5586,0 a 24.189237,24.470417 0 0 0 2.03907,-9.79887 24.189237,24.470417 0 0 0 -24.18946,-24.46875 z"
       id="path4256-50"
       inkscape:connector-curvature="0" />
    <path
       style="fill:#ffffff;fill-opacity:1;stroke:none;stroke-width:0.97898519;stroke-opacity:1"
       d="m 433.856,399.01844 -10.78711,26.5625 a 24.385508,24.564079 0 0 0 -16.22265,-6.25976 24.385508,24.564079 0 0 0 -24.38477,24.56445 24.385508,24.564079 0 0 0 23.22071,24.50588 l -11.33399,27.9101 34.18164,13.8809 a 24.385508,24.564079 0 0 1 -0.0469,-1.3477 24.385508,24.564079 0 0 1 24.38476,-24.5644 24.385508,24.564079 0 0 1 24.38672,24.5644 24.385508,24.564079 0 0 1 -7.79297,17.9707 l 36.06836,14.6485 11.41211,-28.1016 a 24.385508,24.564079 0 0 1 -23.45898,-24.5176 24.385508,24.564079 0 0 1 24.38476,-24.5644 24.385508,24.564079 0 0 1 16.39844,6.4219 l 10.77149,-26.52152 -35.79297,-14.53516 a 24.385508,24.564079 0 0 1 0.0195,0.5625 24.385508,24.564079 0 0 1 -24.38477,24.56248 24.385508,24.564079 0 0 1 -24.38672,-24.56248 24.385508,24.564079 0 0 1 7.2207,-17.42969 l -33.85742,-13.75 z"
       id="path4256-70"
       inkscape:connector-curvature="0" />
    <path
       style="opacity:1;fill:#ffffff;fill-opacity:1;fill-rule:evenodd;stroke:none;stroke-width:0.99003386;stroke-linecap:butt;stroke-linejoin:miter;stroke-miterlimit:4;stroke-dasharray:none;stroke-opacity:1"
       d="m 307.356,526.04971 a 24.189396,24.272102 0 0 0 -24.1914,24.2715 24.189396,24.272102 0 0 0 2.03515,9.6699 l -37.47265,0 0,27.3965 a 24.189396,24.272102 0 0 0 -10.06055,-2.2266 24.189396,24.272102 0 0 0 -24.18945,24.2734 24.189396,24.272102 0 0 0 24.18945,24.2715 24.189396,24.272102 0 0 0 10.06055,-2.2304 l 0,27.3281 37.29882,0 a 24.189396,24.272102 0 0 1 -2.11132,-9.8457 24.189396,24.272102 0 0 1 24.18945,-24.2715 24.189396,24.272102 0 0 1 24.18945,24.2715 24.189396,24.272102 0 0 1 -2.09961,9.8457 l 37.56836,0 0,-24.5059 a 26.314779,26.136208 0 0 1 -8.35742,1.3867 26.314779,26.136208 0 0 1 -26.31641,-26.1347 26.314779,26.136208 0 0 1 26.31641,-26.1367 26.314779,26.136208 0 0 1 8.35742,1.3769 l 0,-24.7988 -37.23242,0 a 24.189396,24.272102 0 0 0 2.01367,-9.6699 24.189396,24.272102 0 0 0 -24.1875,-24.2715 z"
       id="path4394"
       inkscape:connector-curvature="0" />
  </g>
</svg>
